<?xml version="1.0" encoding="utf-8"?>
<!-- Generator: Adobe Illustrator 25.4.1, SVG Export Plug-In . SVG Version: 6.00 Build 0)  -->
<svg version="1.1" id="owl-logo" xmlns="http://www.w3.org/2000/svg" xmlns:xlink="http://www.w3.org/1999/xlink" x="0px" y="0px"
	 viewBox="0 0 830 871" style="enable-background:new 0 0 830 871;" xml:space="preserve">
<style type="text/css">
	.st0{fill:#FFFFFF;}
	.st1{fill:url(#SVGID_1_);}
	.st2{fill:url(#SVGID_00000044868928050581550830000008651653545232348084_);}
	.st3{fill:url(#SVGID_00000047774302730520739350000014570639111758692278_);}
	.st4{fill:url(#SVGID_00000040569863957375562940000000221545866437626787_);}
	.st5{fill:#365BA2;}
	.st6{fill:#6A9448;}
	.st7{fill:#34589B;}
	.st8{display:none;fill:none;stroke:#40403E;stroke-width:3;stroke-linecap:round;stroke-linejoin:round;}
</style>
<path class="st0" d="M372.4,2.5c30.3-0.3,60.4,3.8,89.5,12.2c4.1,1.1,7.8,1.4,11.8,2.7c15.6,5.1,32.2,8.5,48,12.9
	c7.2,2,14.7,2.4,22.3,4.1c4.4,1,9.2,0.3,13.5,1.2c5.5,1.2,11.6-0.2,16.9,1h7.9c4.9,0,11.2,0.8,15.7-0.2l8.3-0.2
	c6.2-1.4,12.9-0.7,18.9-2.4c8.1-2.4,16-5.5,23.5-9.2c7.6-3.8,17.1-10.5,27.4-7.6c1.9,0.5,3.9,0.3,5.4,1.2c2.9,1.7,7.6,6,8.8,9.3
	c0.6,1.8,0.3,3.7,1.2,5.1c1.8,1.1,4.3,0.5,6.4,1.5c2.4,1.5,4.6,3.4,6.4,5.6h0.2v-0.2c2.7-1.8,6.1-5.7,8.1-8.3l2.9-2.7
	c1.9-2,3.7-4.1,5.4-6.3l1.7-1.5c2.4-3.2,5.1-6.3,8.6-8.3c1.3-0.8,3.1-0.5,4.7-1c9.5-2.8,18.2,2.6,22,9.3c0.6,1.1,0.4,2.3,0.7,3.7
	c0.4,1.5,1.2,3.6,1.5,5.1c0.4,1.9-1,4.6-1.5,6.1c-0.2,1-0.3,2.1-0.5,3.2c-0.8,2.2-2.7,4.4-3.9,6.3c-1.4,2.2-2.1,4.6-3.4,6.8
	c-4.1,6.9-7.8,14.1-11,21.4c-2.7,6.2-6.3,12.5-9.1,18.8c-5.6,12.7-10.2,25.9-15.2,39.2c-2.6,6.9-3.5,13.8-5.9,20.9
	c-7.8,24-11.6,50.4-17.7,76c-0.4,1.7,0.2,4.9,0.5,6.3v8.3c1,4.2,1.8,9,2.9,13.2c0.3,2.1,0.7,4.2,1,6.3c2.8,10.4,3.3,21.9,5.9,32.7
	c0.8,3.2,0.5,6.5,1.2,9.5c0.7,7.4,1.3,14.8,2,22.2c0.6,2.8-0.1,6,0.5,8.5l0.2,12c0.7,3-0.5,7.2,0.2,10.5c0.7,4.8,0.7,9.6-0.2,14.4
	v4.9c-0.7,3-0.1,7-0.7,10v4.9c-1.1,5.1-0.1,11.3-1.2,16.3v3.5c-1,4.7-0.1,10.2-1.2,15.1c-0.9,3.9-0.3,8.3-1.2,12.4
	c-1.5,11.2-2.9,22.4-4.4,33.6c-1.7,9.6-3.4,19.2-5.1,28.8c-2.2,7.9-3.1,16.2-5.4,24.1c-5.2,18.3-8.8,37.4-15.7,54.1
	c-1.8,4.2-2.4,8.5-4.2,12.7c-11.2,27.1-21.9,53.6-36.8,77c-11.1,17.5-23.4,33.5-35.5,49.7c-5,6.7-11.6,12.3-16.7,19l-3.8,3.5
	c-2.3,3-5.2,5.4-7.8,8s-5,5.5-8.1,7.8s-5.9,6.4-9.1,8.8c-8.4,6.3-15.8,14-24.3,20.2c-11.4,8.3-22.8,16.4-34.6,24.6
	c-14.4,10-29.7,18.9-44.6,28.5c-25.6,16.5-54.6,30.2-64.9,30c-15.2-0.9-43-13.9-65.4-28.8c-8.6-5.4-17.1-11.4-25.7-16.8
	c-7.8-4.9-15.5-9.6-23-14.9c-5.4-3.7-10.6-8-15.9-11.7c-40.1-28-75.1-62.7-103.4-102.6c-6.8-9.6-13.6-19.3-19.8-29.5
	c-3.2-5.1-5.7-10.5-8.8-15.6c-1.1-1.7-1.4-3.6-2.4-5.4c-2.4-3.9-4.5-8-6.4-12.2c-8.1-18.2-16-36.9-22.5-56.5
	c-4.9-14.5-8.4-29.7-12.7-44.8c-4-14.1-5.6-28.9-9.3-43.4c-1.6-6.4-1.7-13.2-3.2-19.5c-1.3-10.4-2.6-20.8-3.9-31.2l-2.7-32.4
	c-0.8-3.8,0.1-8.7-0.7-12.4c-0.2-5-0.3-9.9-0.5-14.9c-0.7-3.2-0.5-7.1-0.5-10.7V362c-0.6-3.8-0.6-7.7,0-11.5v-5.4
	c0.2-5.7,0.3-11.4,0.5-17.1c1.1-4.9-0.2-10.5,1-15.6c0.8-3.4,0.2-7.1,1-10.7c1.9-8.2,1.7-17,3.7-24.9c0.2-1.5,0.3-2.9,0.5-4.4
	c2.5-9.7,3.1-20,5.6-29.7c0.7-2.8,1.3-5.9,2-8.8v-3.9c0.2-0.6,0.3-1.3,0.2-2c-2.7-11.7-4.4-24-7.6-35.3c-1.1-3.8-1.1-7.2-2.2-11
	c-3.9-13.2-6.3-27.3-10.7-40.4c-7.5-22.4-15-43.9-25-63.9c-2.6-5.1-5.1-10.8-8.1-15.6c-1.9-3.1-2.8-6.4-4.6-9.5S6.9,46.3,5,43.3
	c-0.9-1.4-2.3-3-2.9-4.6c-0.4-1-2.1-8.5-2-9.3c0.3-1.5,1-3.6,1.5-5.1c0.2-1.1,0.3-2.1,0.5-3.2c0.4-1,1.6-1.8,2.2-2.7
	c4.6-6.5,11.8-9.4,21.1-6.9l3.2,0.5c3.9,1.5,8.3,7.2,10.8,10.5c1.2,1.6,3.2,2.8,4.4,4.4c2.3,2.8,4.7,5.5,7.3,8
	c1.5,1.5,3.5,2.8,4.7,4.6c0.3-0.2,0,0,0.2-0.2c1.9-1.3,4.2-4.3,6.4-5.4c1.4-0.7,5.2-1.1,6.9-1.5c0.6-10.7,9.6-14.8,19.1-16.8
	c1-0.2,10.2,2,11.3,2.4c2.1,0.9,4.2,2.5,6.1,3.4c10,4.6,19.7,9.5,31.1,12.4c3.4,0.9,6.5,0.4,10.1,1.2c8.3,1.8,18.4,1.5,28.2,1.5
	c6.7,0,25.6,0.5,31.3-0.7c2.3-0.1-5.6-0.2-3.4-0.2c7.6-1.7,16-0.8,23.3-2.7c4.2-1.1,8.7-1.5,13-2.7c24.1-6.7,48.5-11.9,72.8-18.7
	c9.5-2.7,19.5-3.5,29.4-5.8c4.1-1,8.5-0.8,12.5-1.7L372.4,2.5z"/>
<linearGradient id="SVGID_1_" gradientUnits="userSpaceOnUse" x1="14.3778" y1="-427.075" x2="102.8775" y2="-184.7359" gradientTransform="matrix(1 0 0 1 319.56 1045.1799)">
	<stop  offset="0" style="stop-color:#4B2A63"/>
	<stop  offset="1" style="stop-color:#6F2262"/>
	<stop  offset="1" style="stop-color:#6F2262"/>
</linearGradient>
<path class="st1" d="M231.3,746.3c0,0,68.4,61.9,144.9,90.4c2.1,1,2.4,1.1,4.4,0.4c40.5-12.9,110.2-51.2,149.5-91.1L382,594.4
	L231.3,746.3z"/>
<linearGradient id="SVGID_00000176722764372961671140000003271624966733496722_" gradientUnits="userSpaceOnUse" x1="345.185" y1="702.9329" x2="188.3949" y2="856.2229" gradientTransform="matrix(1 0 0 -1 319.56 1317.3557)">
	<stop  offset="0" style="stop-color:#FDE600"/>
	<stop  offset="0.36" style="stop-color:#FCE303"/>
	<stop  offset="0.64" style="stop-color:#F9DB0D"/>
	<stop  offset="0.89" style="stop-color:#F3CC1D"/>
	<stop  offset="1" style="stop-color:#F0C427"/>
</linearGradient>
<path style="fill:url(#SVGID_00000176722764372961671140000003271624966733496722_);" d="M529.5,440.9c0,0,77.2,1.5,149.2-72.4
	c2-2.2,3-1.6,3,0.2c2.5,162-56.5,289.5-151.5,377.3C458.4,676.6,382,594.4,382,594.4L529.5,440.9z"/>
<linearGradient id="SVGID_00000109004442247386604450000008128485914710634128_" gradientUnits="userSpaceOnUse" x1="66.6632" y1="927.1465" x2="66.6632" y2="596.5965" gradientTransform="matrix(1 0 0 -1 319.56 1317.3557)">
	<stop  offset="0" style="stop-color:#68CCE3"/>
	<stop  offset="0.19" style="stop-color:#65C2DE"/>
	<stop  offset="0.51" style="stop-color:#5CA9D2"/>
	<stop  offset="0.91" style="stop-color:#4E7FBF"/>
	<stop  offset="1" style="stop-color:#4B75BA"/>
</linearGradient>
<path style="fill:url(#SVGID_00000109004442247386604450000008128485914710634128_);" d="M243.2,438c0,0,72.2,1.5,138.1-52.6
	c0.8-0.7,2-0.7,2.8,0c9.4,8.1,65.7,58.1,145.2,55.4L382,594.4L243.2,438z"/>
<linearGradient id="SVGID_00000011723452133343807600000016685447119949358255_" gradientUnits="userSpaceOnUse" x1="-1140.6859" y1="722.0922" x2="-1302.8761" y2="884.2824" gradientTransform="matrix(-1 0 0 -1 -1019.81 1317.3557)">
	<stop  offset="0" style="stop-color:#81C348"/>
	<stop  offset="0.23" style="stop-color:#79C048"/>
	<stop  offset="0.58" style="stop-color:#64B749"/>
	<stop  offset="0.9" style="stop-color:#4BAC4A"/>
</linearGradient>
<path style="fill:url(#SVGID_00000011723452133343807600000016685447119949358255_);" d="M243.2,438c0,0-80.2,6.6-153.7-70.2
	c-2-2.1-3.5-0.4-3.6,1.1c-1.1,22.4-25.5,217.8,145.2,377.4C303,676.8,382,594.4,382,594.4L243.2,438z"/>
<polygon class="st5" points="381.2,273.3 409,327.1 381.2,358.1 355,327.2 "/>
<path class="st6" d="M222.7,125c-15.1,0-30.1,2.7-44.3,8c0.2-0.3,0.5-0.6,0.7-0.9c-24-3.7-95.2-55.8-95.2-55.8l24,42.8L24.9,48.4
	c45.7,55.6,65.8,177.3,70.9,214.1c0,0.2,0.1,0.4,0.1,0.5c0.3,3.2,0.8,6.4,1.2,9.5c0,0.4,0.1,0.6,0.1,0.6l0,0
	c11.5,69.3,77.1,116.2,146.4,104.7c69.3-11.5,116.2-77.1,104.7-146.4C338.1,170,285,125,222.7,125z M222.7,341
	c-49,0-88.8-39.7-88.8-88.7s39.7-88.8,88.7-88.8s88.8,39.7,88.8,88.7c0,0,0,0,0,0c0,49-39.6,88.7-88.6,88.7
	C222.8,341,222.8,341,222.7,341z"/>
<path class="st7" d="M296,252.3c0,40.5-32.8,73.3-73.3,73.3c-40.5,0-73.3-32.8-73.3-73.3c0-3,0.2-6,0.6-9c5.2,3.4,11.3,5.1,17.4,5.1
	c18,0,32.6-14.6,32.6-32.7c0-10.7-5.3-20.8-14.2-26.9c35.1-20.3,80-8.3,100.3,26.8C292.6,226.8,296,239.4,296,252.3L296,252.3z"/>
<path class="st6" d="M409,252.3c-0.1,70.3,56.7,127.4,127,127.6c62.5,0.1,115.8-45.1,125.9-106.7l0,0c0,0,0-0.2,0.1-0.6
	c0.5-3.1,1-6.3,1.2-9.5c0-0.1,0.1-0.4,0.1-0.5c5.2-36.7,25.2-158.4,70.9-214.1L651,119.1l24-42.8c0,0-71.2,52.1-95.2,55.8
	c0.2,0.1,0.4,0.5,0.7,0.9c-14.2-5.3-29.2-8-44.3-8C465.9,125,408.9,182,409,252.3z M447.5,252.3c0-49,39.7-88.7,88.7-88.7
	s88.7,39.7,88.7,88.7S585.3,341,536.3,341l0,0C487.3,341,447.6,301.3,447.5,252.3z"/>
<path class="st7" d="M463,252.3c0,40.5,32.8,73.3,73.3,73.3c40.5,0,73.3-32.8,73.3-73.3c0-3-0.2-6-0.6-9c-5.2,3.4-11.3,5.1-17.4,5.1
	c-18-0.1-32.6-14.8-32.5-32.8c0-10.7,5.3-20.7,14.1-26.7c-35.1-20.3-80-8.3-100.3,26.8C466.4,226.8,463,239.4,463,252.3z"/>
<path class="st7" d="M381.2,193.7c0,0,22.4-86,93.7-93.3c64.3-7.6,110,9.4,190.2-45.5C563.4,95.3,472.2,40.4,384.8,40.4
	S168.4,99.2,98.9,55.4c34.7,42.2,99.2,40,152.5,45.9C370.7,104,381.2,193.7,381.2,193.7z"/>
<path class="st8" d="M87.5,368.1c0,0-41.1,328.1,291.3,468.6c0,0,306.5-91.8,301.5-468.9c0,0-135.3,153.4-297.3,17.8
	C382.9,385.7,233,516.9,87.5,368.1z"/>
<path class="st0" d="M777.1,48.4V20.9h-9.8v-5.6h26.3v5.6h-9.8v27.5H777.1z"/>
<path class="st0" d="M797.9,48.4V15.3h10l6,22.6l6-22.6h10v33.1h-6.2V22.3l-6.6,26.1h-6.4l-6.6-26.1v26.1H797.9z"/>
</svg>
